<svg t="1680686455588" class="icon" viewBox="0 0 1024 1024" version="1.1" xmlns="http://www.w3.org/2000/svg" p-id="2910" width="200" height="200"><path d="M433.88386219551603 701.3724553620543c4.734311578232098 7.101466720079011 11.83577829831111 9.468623156464195 18.937245018390122 9.468623156464195 7.101466720079011 0 14.202934734696296-2.3671551418469137 18.93724631292839-9.468623156464195l94.68622768102716-125.4592509977284L767.6528148682271 843.4017975308641H197.16829234567905c-14.202934734696296 0-23.67155659662222 9.468623156464195-23.67155659662222 23.67155659662222s9.468623156464195 23.67155659662222 23.67155659662222 23.67155789116049H772.3871264464593c40.24164647316543 0 71.01467108440494-30.773024611239506 71.01467108440494-71.01467108440494V346.29910123456796c0-40.24164647316543-30.773024611239506-71.01467108440494-71.01467108440494-71.01467108440494H133.2550879813532c-40.24164647316543 0-71.01467108440494 30.773024611239506-71.01466978986667 71.01467108440494v475.798294841521c0 9.468623156464195 7.101466720079011 18.937245018390122 16.57008987654321 23.67155659662222 9.468623156464195 2.3671551418469137 21.304401454775306-2.3671551418469137 26.038711738469132-9.468621861925925L301.3231431831704 512l132.5607190123457 189.37245536205432z m-151.49796532527407-248.55134814814815l-170.43520904912594 284.05868433761975V346.29910123456796c0-14.202934734696296 9.468623156464195-23.67155659662222 23.67155659662222-23.67155659662222h639.1320384651062c14.202934734696296 0 23.67155659662222 9.468623156464195 23.67155659662222 23.67155659662222v456.8610498231309l-210.6768568168296-279.3243727593876c-4.734311578232098-7.101466720079011-11.83577829831111-9.468623156464195-18.93724631292839-9.468623156464195-7.101466720079011 0-14.202934734696296 2.3671551418469137-18.937245018390122 9.468623156464195l-94.68622768102716 123.09209585588148-132.5607190123457-196.47392208213333c-4.734311578232098-7.101466720079011-11.83577829831111-9.468623156464195-21.304401454775306-9.468623156464195-7.101466720079011 0-14.202934734696296 4.734311578232098-18.93724631292839 11.83577829831111z" fill="" p-id="2911"></path><path d="M886.0106004404147 154.55948943612844h-639.1320384651062c-14.202934734696296 0-23.67155659662222 9.468623156464195-23.67155659662222 23.67155789116049s9.468623156464195 23.67155659662222 23.67155659662222 23.67155659662222h639.1320384651062c14.202934734696296 0 23.67155659662222 9.468623156464195 23.67155659662222 23.67155659662222V701.3724553620543c0 14.202934734696296 9.468623156464195 23.67155659662222 23.67155659662222 23.67155789116049s23.67155659662222-9.468623156464195 23.67155789116049-23.67155789116049V225.57416052053333c0-37.87449133131852-30.773024611239506-71.01467108440494-71.01467108440494-71.01467108440494z" fill="" p-id="2912"></path></svg>


